<!-- Generator: Adobe Illustrator 19.0.0, SVG Export Plug-In  -->
<svg version="1.1"
	 xmlns="http://www.w3.org/2000/svg" xmlns:xlink="http://www.w3.org/1999/xlink" xmlns:a="http://ns.adobe.com/AdobeSVGViewerExtensions/3.0/"
	 x="0px" y="0px" width="24.8px" height="40.2px" viewBox="0 0 24.8 40.2"
	 style="overflow:scroll;enable-background:new 0 0 24.8 40.2;" xml:space="preserve">
<style type="text/css">
	.st0{fill:#F05732;}
	.st1{fill:#9E529F;}
</style>
<defs>
</defs>
<path class="st0" d="M19.3,12.2c-1.3-1-1.8,3.9-4.4,3.9c-3,0-4-13-6.3-13c-0.7,0-0.8-0.4-7.9,21.3c-2.9,9,4.4,15.8,11.8,15.8
	c4.6,0,12.3-3,12.3-12.6C24.8,20.5,21.3,13.7,19.3,12.2z M12.4,35.3c-3.7,0-6.7-3.1-6.7-7s3-7,6.7-7s6.7,3.1,6.7,7
	C19.1,32.1,16.1,35.3,12.4,35.3z"/>
<path class="st1" d="M16.4,0c-0.5,0-1.8,2.5-1.8,3.6c0,1.5,1,2,1.8,2c0.8,0,1.8-0.5,1.8-2C18.1,2.5,16.8,0,16.4,0z"/>
</svg>
