<!-- Generator: Adobe Illustrator 19.0.0, SVG Export Plug-In  -->
<svg version="1.1"
	 xmlns="http://www.w3.org/2000/svg" xmlns:xlink="http://www.w3.org/1999/xlink" xmlns:a="http://ns.adobe.com/AdobeSVGViewerExtensions/3.0/"
	 x="0px" y="0px" width="129.4px" height="122.8px" viewBox="0 0 129.4 122.8"
	 style="overflow:scroll;enable-background:new 0 0 129.4 122.8;" xml:space="preserve">
<style type="text/css">
	.st0{fill:#010202;}
	.st1{fill:#E55C2D;}
	.st2{fill:#EE8F24;}
	.st3{fill:#F8BF3C;}
</style>
<defs>
</defs>
<path id="XMLID_36_" class="st0" d="M108.1,108.1c1.7,2.8,3.9,4.8,7.9,4.8c3.3,0,5.4-1.7,5.4-3.9c0-2.7-2.2-3.7-5.8-5.3l-2-0.9
	c-5.8-2.5-9.6-5.5-9.6-12c0-6,4.6-10.5,11.7-10.5c5.1,0,8.7,1.8,11.4,6.4l-6.2,4c-1.4-2.5-2.8-3.4-5.1-3.4c-2.3,0-3.8,1.5-3.8,3.4
	c0,2.4,1.5,3.4,4.9,4.8l2,0.9c6.8,2.9,10.6,5.9,10.6,12.5c0,7.2-5.6,11.1-13.2,11.1c-7.4,0-12.2-3.5-14.5-8.2L108.1,108.1z
	 M79.9,108.8c1.3,2.2,2.4,4.1,5.1,4.1c2.6,0,4.3-1,4.3-5V80.8h8V108c0,8.3-4.8,12-11.9,12c-6.4,0-10.1-3.3-12-7.3L79.9,108.8z"/>
<g id="layer1_1_" transform="translate(-77.942529,-177.00005)">
	<g id="g4550_1_">
		<path id="path4508_1_" class="st1" d="M143.4,195.9v18.9l32.7,18.9v-18.9L143.4,195.9z M77.9,214.8v18.9l16.4,9.4v-18.9
			L77.9,214.8z M127,224.2l-16.4,9.4v56.7l16.4,9.4V262l16.4,9.4v-18.9l-16.4-9.4V224.2z"/>
		<path id="path4491_1_" class="st2" d="M143.4,195.9l-49.1,28.3v18.9l32.7-18.9v18.9l16.4-9.4V195.9z M192.5,205.3l-16.4,9.4v18.9
			l16.4-9.4V205.3z M159.8,243.1l-16.4,9.4v18.9l16.4-9.4V243.1z M143.4,271.5L127,262v37.8l16.4-9.4V271.5z"/>
		<path id="path4506_1_" class="st3" d="M143.4,177l-65.5,37.8l16.4,9.4l49.1-28.3l32.7,18.9l16.4-9.4L143.4,177z M143.4,233.7
			l-16.4,9.4l16.4,9.4l16.4-9.4L143.4,233.7z"/>
	</g>
</g>
</svg>
